<svg xmlns="http://www.w3.org/2000/svg" viewBox="0 0 100 77.8"><path d="M98.082 76.769c.393 0 .393 0 0 0 .393 0 .393 0 0 0zm0-.393c.393 0 .393 0 0 0 .393.393.393.393 0 0l.393.393.393.393-.393-.393v.393l-.393-.786zm0 1.178s.393 0 0 0h.393v-.392-.393-.393-.393h-.393-.786-.393V77.554h1.179m0-1.571s.393 0 0 0c.393 0 .393 0 .393.393v1.571h-.393-.393-.393-.393v-.393-.392-.393-.393c.786 0 .786 0 1.179-.393m-76.628-2.751c0-1.572.786-2.75 2.358-2.75s2.357 1.178 2.357 2.75-1.178 2.75-2.357 2.75c-1.18 0-2.358-1.178-2.358-2.75m6.68 0v-3.93H26.17v1.18c-.393-.787-1.571-1.18-2.75-1.18-2.358 0-3.93 1.965-3.93 4.323 0 2.358 1.965 4.322 3.93 4.322 1.179 0 1.965-.393 2.75-1.178v1.178h1.965v-4.715zm60.516 0c0-1.572.786-2.75 2.358-2.75s2.358 1.178 2.358 2.75-1.179 2.75-2.358 2.75c-1.572 0-2.358-1.178-2.358-2.75m6.68 0v-7.466h-1.964v4.322c-.393-.786-1.572-1.179-2.75-1.179-2.358 0-3.93 1.965-3.93 4.323 0 2.358 1.964 4.322 3.93 4.322 1.178 0 1.964-.392 2.75-1.178v1.178h1.965v-4.322zm-44.797-2.75c1.179 0 1.965.785 1.965 1.964h-4.323c.393-1.179.786-1.965 2.358-1.965m0-1.572c-2.358 0-3.93 1.572-3.93 4.323 0 2.75 1.572 4.322 4.323 4.322 1.179 0 2.358-.392 3.537-1.178l-.786-1.18c-.786.394-1.572.787-2.358.787-1.179 0-2.358-.393-2.358-1.965h6.288v-.786c-.786-2.75-2.358-4.323-4.716-4.323m21.22 4.323c0-1.572.786-2.75 2.358-2.75s2.358 1.178 2.358 2.75-1.18 2.75-2.358 2.75c-1.179 0-2.358-1.178-2.358-2.75m6.68 0v-3.93H76.47v1.18c-.393-.787-1.572-1.18-2.751-1.18-2.358 0-3.93 1.965-3.93 4.323 0 2.358 1.965 4.322 3.93 4.322 1.179 0 1.965-.393 2.75-1.178v1.178h1.965v-4.715zm-16.504 0c0 2.358 1.572 4.322 4.323 4.322 1.179 0 1.964-.392 3.143-.785l-.786-1.572c-.786.393-1.178.786-1.964.786-1.572 0-2.358-1.18-2.358-2.751 0-1.572 1.179-2.75 2.358-2.75.786 0 1.571.392 1.964.785l.786-1.572c-.786-.786-1.572-.786-3.143-.786-2.751 0-4.323 1.965-4.323 4.323m22.792-4.323c-1.179 0-1.572.393-2.358 1.18v-1.18h-1.965v8.253h1.965v-4.716c0-1.179.393-1.965 1.572-1.965.393 0 .786 0 1.179.393l.393-1.572c.393-.393-.393-.393-.786-.393m-47.549.786c-.786-.393-1.964-.786-3.536-.786-1.965 0-3.537 1.18-3.537 2.751 0 1.179 1.179 2.358 2.75 2.358h.787c.786 0 1.572.393 1.572.786 0 .786-.786 1.179-1.965 1.179-1.18 0-1.965-.393-2.751-.786l-.786 1.572c.786.785 2.358 1.178 3.537 1.178 2.358 0 3.93-1.178 3.93-2.75s-1.18-2.358-2.751-2.358h-.786c-.786 0-1.572-.393-1.572-.786 0-.786.393-.786 1.572-.786s1.965.393 2.75.786l.786-2.358zm22.792-.786c-1.179 0-1.572.393-2.358 1.18v-1.18h-1.964v8.253h1.964v-4.716c0-1.179.393-1.965 1.572-1.965.393 0 .786 0 1.18.393l.392-1.572c0-.393-.393-.393-.786-.393m-14.932 0H42.28v-2.357h-1.965v2.357h-1.572v1.965h1.572v3.93c0 1.965.786 3.143 2.75 3.143.787 0 1.573-.393 2.359-.785l-.393-1.572c-.393.393-1.18.393-1.572.393-.786 0-1.18-.393-1.18-1.18v-3.929h2.752V68.91zM18.31 77.162v-5.109c0-1.965-1.179-3.144-3.143-3.144-1.18 0-1.965.393-2.751 1.572-.393-.786-1.572-1.572-2.751-1.572-.786 0-1.572.393-2.358 1.18v-1.18H5.342v8.253h1.965v-4.716c0-1.572.786-2.358 1.965-2.358s1.965.786 1.965 2.358v4.716h1.965v-4.716c0-1.572.786-2.358 1.965-2.358 1.178 0 1.964.786 1.964 2.358v4.716h1.18z" fill="#231f20"/><path d="M99.103 50.141v-1.178h-.393l-.393.785-.393-.785h-.393v1.178h.393v-1.178l.393.785h.393l.393-.785v1.178zm-1.965 0v-1.178h.393-1.178.393l.392 1.178z" fill="#f79410"/><path d="M63.58 55.187H36.543V6.46h27.035v48.727z" fill="#ff5f00"/><path d="M38.351 30.713c0-9.824 4.716-18.469 11.79-24.363C45.03 2.027 38.35-.33 30.884-.33 13.988-.33-.159 13.422-.159 30.712s14.147 31.044 31.044 31.044c7.073 0 13.754-2.357 19.255-6.68-7.073-5.501-11.789-14.54-11.789-24.364" fill="#eb001b"/><path d="M100.204 30.713c0 16.898-13.754 31.044-31.044 31.044-7.074 0-13.754-2.357-19.256-6.68 7.074-5.501 11.79-14.54 11.79-24.364S56.977 12.244 49.903 6.35C55.013 2.027 61.694-.33 69.16-.33c16.897.392 31.044 14.146 31.044 31.043" fill="#f79e1b"/></svg>