<svg id="svg2" xmlns="http://www.w3.org/2000/svg" viewBox="0 0 100 63.5"><style>.st2{fill:#1a1f71}</style><path id="path4147" d="M100 63.5H0V0h100v63.5z" fill="#fff"/><path id="path4149" d="M1.7 53.2h96.7v8.7H1.7v-8.7z" fill="#f7b600"/><path id="path4151" class="st2" d="M1.7 10.3h96.7V1.7H1.7v8.6z"/><g id="g4155"><g id="g4161" transform="translate(305.112 421.192)"><path id="path4163" class="st2" d="M-255.9-401.3l-5.1 23.8h-6.2l5.1-23.8h6.2zm25.9 15.4l3.2-8.9 1.9 8.9h-5.1zm6.9 8.4h5.7l-5-23.8h-5.3c-1.2 0-2.2.7-2.6 1.7l-9.2 22.1h6.5l1.3-3.6h7.9c-.1.1.7 3.6.7 3.6zm-16.1-7.8c0-6.3-8.7-6.6-8.6-9.4 0-.9.8-1.8 2.6-2 .9-.1 3.3-.2 6.1 1.1l1.1-5.1c-1.5-.5-3.4-1.1-5.8-1.1-6.1 0-10.4 3.2-10.4 7.9 0 3.4 3.1 5.3 5.4 6.5 2.4 1.2 3.2 1.9 3.2 3 0 1.6-1.9 2.3-3.7 2.3-3.1 0-4.9-.8-6.3-1.5l-1.1 5.2c1.4.7 4.1 1.2 6.9 1.3 6.3 0 10.6-3.2 10.6-8.2m-25.6-16l-10 23.8h-6.5l-4.9-19c-.3-1.2-.6-1.6-1.5-2.1-1.5-.8-3.9-1.6-6.1-2l.1-.7h10.5c1.3 0 2.5.9 2.8 2.4l2.6 13.8 6.4-16.2h6.6z"/></g></g></svg>