<svg xmlns="http://www.w3.org/2000/svg" viewBox="0 0 100 77.2"><g transform="matrix(1.82152 0 0 1.82152 -17.944 -13.026)"><path d="M64.8 41c0 4.7-3.8 8.5-8.5 8.5H9.9V15.7c0-4.7 3.8-8.5 8.5-8.5h46.4V41z" fill="#fff"/><linearGradient id="a" gradientUnits="userSpaceOnUse" x1="-.045" y1="111.285" x2="13.359" y2="111.285" gradientTransform="matrix(2.0492 0 0 -2.0492 46.75 258.728)"><stop offset="0" stop-color="#007940"/><stop offset=".229" stop-color="#00873f"/><stop offset=".743" stop-color="#40a737"/><stop offset="1" stop-color="#5cb531"/></linearGradient><path d="M49.6 32.3h3.9c.7-.1 1.2-.7 1.2-1.6 0-.8-.6-1.4-1.2-1.6h-3.9v3.2z" fill="url(#a)"/><linearGradient id="b" gradientUnits="userSpaceOnUse" x1="-.046" y1="112.423" x2="13.347" y2="112.423" gradientTransform="matrix(2.0492 0 0 -2.0492 46.75 258.728)"><stop offset="0" stop-color="#007940"/><stop offset=".229" stop-color="#00873f"/><stop offset=".743" stop-color="#40a737"/><stop offset="1" stop-color="#5cb531"/></linearGradient><path d="M52.8 10c-3.4 0-6.1 2.7-6.1 6.1v6.3h9.2c1.9.1 3.4 1.1 3.4 2.9 0 1.4-1 2.6-2.8 2.8v.1c2 .1 3.5 1.2 3.5 3s-1.7 3.1-3.9 3.1h-9.5v12.4h9c3.4 0 6.1-2.7 6.1-6.1V10h-8.9z" fill="url(#b)"/><linearGradient id="c" gradientUnits="userSpaceOnUse" x1="-.046" y1="113.675" x2="13.359" y2="113.675" gradientTransform="matrix(2.0492 0 0 -2.0492 46.75 258.728)"><stop offset="0" stop-color="#007940"/><stop offset=".229" stop-color="#00873f"/><stop offset=".743" stop-color="#40a737"/><stop offset="1" stop-color="#5cb531"/></linearGradient><path d="M54.4 25.8c0-.8-.6-1.3-1.2-1.4h-3.5v3h3.5c.6-.3 1.2-.8 1.2-1.6z" fill="url(#c)"/><linearGradient id="d" gradientUnits="userSpaceOnUse" x1="-16.52" y1="112.431" x2="-2.909" y2="112.431" gradientTransform="matrix(2.0492 0 0 -2.0492 46.75 258.728)"><stop offset="0" stop-color="#1f286f"/><stop offset=".475" stop-color="#004e94"/><stop offset=".826" stop-color="#0066b1"/><stop offset="1" stop-color="#006fbc"/></linearGradient><path d="M19 10c-3.4 0-6.1 2.7-6.1 6.1v15.1c1.7.8 3.5 1.4 5.3 1.4 2.1 0 3.3-1.3 3.3-3v-7.1h5.2v7.1c0 2.8-1.7 5-7.5 5-3.5 0-6.3-.8-6.3-.8v12.9h9c3.4 0 6.1-2.7 6.1-6.1V10h-9z" fill="url(#d)"/><linearGradient id="e" gradientUnits="userSpaceOnUse" x1="-8.322" y1="112.415" x2="4.898" y2="112.415" gradientTransform="matrix(2.0492 0 0 -2.0492 46.75 258.728)"><stop offset="0" stop-color="#6c2c2f"/><stop offset=".173" stop-color="#882730"/><stop offset=".573" stop-color="#be1833"/><stop offset=".859" stop-color="#dc0436"/><stop offset="1" stop-color="#e60039"/></linearGradient><path d="M35.9 10c-3.4 0-6.1 2.7-6.1 6.1v8c1.5-1.3 4.2-2.1 8.6-1.9 2.3.1 4.8.7 4.8.7v2.6c-1.2-.6-2.7-1.2-4.6-1.3-3.3-.2-5.3 1.4-5.3 4.2 0 2.9 2 4.5 5.3 4.2 1.9-.1 3.4-.7 4.6-1.3v2.6s-2.4.6-4.8.7c-4.3.2-7-.6-8.6-1.9v14.1h9c3.4 0 6.1-2.7 6.1-6.1V10h-9z" fill="url(#e)"/></g></svg>